<svg id="Group_143162" data-name="Group 143162" xmlns="http://www.w3.org/2000/svg" width="18.871" height="18.871" viewBox="0 0 18.871 18.871">
  <path id="Vector" d="M1.49,2.98A1.5,1.5,0,0,1,0,1.49,1.5,1.5,0,0,1,1.49,0H17.381a1.5,1.5,0,0,1,1.49,1.49,1.5,1.5,0,0,1-1.49,1.49Z" transform="translate(0 7.945)" fill="#c7c7c7"/>
  <path id="Vector-2" data-name="Vector" d="M0,17.381V1.49A1.5,1.5,0,0,1,1.49,0,1.5,1.5,0,0,1,2.98,1.49V17.381a1.5,1.5,0,0,1-1.49,1.49A1.5,1.5,0,0,1,0,17.381Z" transform="translate(7.946)" fill="#c7c7c7"/>
</svg>
