<svg xmlns="http://www.w3.org/2000/svg" xmlns:xlink="http://www.w3.org/1999/xlink" width="26" height="26" viewBox="0 0 26 26">
  <defs>
    <clipPath id="clip-path">
      <rect width="26" height="26" fill="none"/>
    </clipPath>
  </defs>
  <g id="Repeat_Grid_3" data-name="Repeat Grid 3" clip-path="url(#clip-path)">
    <g id="Group_143152" data-name="Group 143152" transform="translate(-15170 -4497)">
      <circle id="Ellipse_24" data-name="Ellipse 24" cx="13" cy="13" r="13" transform="translate(15170 4497)" fill="#3d8d89"/>
      <path id="Path_112721" data-name="Path 112721" d="M69.392,0H60.921A.921.921,0,0,0,60,.921V13.032a.921.921,0,0,0,.921.921h8.471a.921.921,0,0,0,.921-.921V.921A.921.921,0,0,0,69.392,0Zm-7.93,10.423V9.113a.19.19,0,0,1,.19-.19h1.31a.19.19,0,0,1,.19.19v1.31a.19.19,0,0,1-.19.19h-1.31A.19.19,0,0,1,61.462,10.423Zm0-2.639V6.474a.19.19,0,0,1,.19-.19h1.31a.19.19,0,0,1,.19.19v1.31a.19.19,0,0,1-.19.19h-1.31A.19.19,0,0,1,61.462,7.784ZM67.55,12.77H62.764a.607.607,0,0,1,0-1.213H67.55a.607.607,0,0,1,0,1.213ZM64.5,8.923h1.31a.19.19,0,0,1,.19.19v1.31a.19.19,0,0,1-.19.19H64.5a.19.19,0,0,1-.19-.19V9.113A.19.19,0,0,1,64.5,8.923Zm-.19-1.139V6.474a.19.19,0,0,1,.19-.19h1.31a.19.19,0,0,1,.19.19v1.31a.19.19,0,0,1-.19.19H64.5A.19.19,0,0,1,64.312,7.784Zm4.35,2.829h-1.31a.19.19,0,0,1-.19-.19V9.113a.19.19,0,0,1,.19-.19h1.31a.19.19,0,0,1,.19.19v1.31h0A.19.19,0,0,1,68.662,10.612Zm0-2.639h-1.31a.19.19,0,0,1-.19-.19V6.474a.19.19,0,0,1,.19-.19h1.31a.19.19,0,0,1,.19.19v1.31h0A.19.19,0,0,1,68.662,7.973Zm.256-3.434a.648.648,0,0,1-.648.648H62.043a.648.648,0,0,1-.648-.648V1.892a.648.648,0,0,1,.648-.648H68.27a.648.648,0,0,1,.648.648Z" transform="translate(15117.843 4503.023)" fill="#fff"/>
    </g>
  </g>
</svg>
