<svg id="icons" xmlns="http://www.w3.org/2000/svg" width="15.386" height="15.382" viewBox="0 0 15.386 15.382">
  <path id="instagram-_167_" data-name="instagram-[#167]" d="M288.516,7279.094a4.245,4.245,0,0,0-4.453,4.446c-.035.77-.242,6.616.355,8.148a3.873,3.873,0,0,0,2.239,2.23,5.406,5.406,0,0,0,1.858.354c6.816.308,9.343.146,10.408-2.584a5.554,5.554,0,0,0,.355-1.854c.312-6.832-.051-8.316-1.239-9.5-.942-.938-2.051-1.577-9.525-1.238m.062,13.808a4.492,4.492,0,0,1-1.422-.261,2.525,2.525,0,0,1-1.452-1.454c-.455-1.162-.3-6.692-.263-7.585a3.278,3.278,0,0,1,.835-2.3c.765-.762,1.755-1.14,8.488-.831a3.283,3.283,0,0,1,2.3.831c.766.762,1.146,1.762.836,8.47a4.186,4.186,0,0,1-.263,1.415c-.693,1.777-2.287,2.024-9.061,1.715m6.261-10.293a.919.919,0,1,0,.919-.916.916.916,0,0,0-.919.916m-7.1,4.078a3.931,3.931,0,1,0,3.93-3.923,3.924,3.924,0,0,0-3.93,3.923m1.379,0a2.551,2.551,0,1,1,2.551,2.545,2.547,2.547,0,0,1-2.551-2.545" transform="translate(-284 -7279.002)" fill="#272727" fill-rule="evenodd"/>
</svg>
