<svg xmlns="http://www.w3.org/2000/svg" width="12.977" height="14.933" viewBox="0 0 12.977 14.933">
  <path id="tiktok-svgrepo-com" d="M9.786,1.016C10.6,1,11.41,1.01,12.219,1a3.866,3.866,0,0,0,1.09,2.6h0a4.368,4.368,0,0,0,2.625,1.113h.014V7.221A6.636,6.636,0,0,1,13.292,6.6l.041.017a7.661,7.661,0,0,1-1.034-.6l.026.017c-.006,1.817.006,3.634-.012,5.445a4.737,4.737,0,0,1-.85,2.467l.01-.015a4.639,4.639,0,0,1-3.671,2H7.794c-.061,0-.133,0-.206,0a4.517,4.517,0,0,1-2.353-.657l.02.011a4.7,4.7,0,0,1-2.27-3.533l0-.02c-.012-.311-.018-.622-.006-.927A4.69,4.69,0,0,1,7.639,6.59a4.741,4.741,0,0,1,.8.068l-.028,0c.012.921-.025,1.842-.025,2.763A2.1,2.1,0,0,0,7.678,9.3a2.136,2.136,0,0,0-2.014,1.425l0,.015a2.416,2.416,0,0,0-.1.71,2.551,2.551,0,0,0,.018.3v-.012a2.121,2.121,0,0,0,2.092,1.788l.09,0h0a2.09,2.09,0,0,0,1.719-.993l0-.009a1.423,1.423,0,0,0,.254-.653v-.007c.062-1.114.037-2.222.043-3.336.006-2.508-.006-5.01.012-7.511Z" transform="translate(-2.97 -1.004)" fill="#272727"/>
</svg>
