<svg xmlns="http://www.w3.org/2000/svg" width="16.622" height="16.433" viewBox="0 0 16.622 16.433">
  <g id="c" transform="translate(0.751 0.75)">
    <path id="d" d="M13.065,20.663c1.564,0,2.03-.657,3.059-1.113.919-.408,2.235.208,2.508-.883h0c.035-.564,1.027-.473,1.583-.858.507-.351.558-.914.037-1.135A4.777,4.777,0,0,1,17.532,13.9c-.187-.735,2.157-.961,1.669-2.346-.288-.817-1.323-.53-1.886-.346C17.69,8.3,16.276,5.73,13.06,5.73S8.431,8.3,8.806,11.2c-.563-.183-1.6-.471-1.886.346-.488,1.385,1.856,1.611,1.669,2.346a4.777,4.777,0,0,1-2.721,2.778c-.521.222-.471.784.037,1.135.556.385,1.548.294,1.583.858h0c.273,1.091,1.589.476,2.508.883,1.029.457,1.5,1.112,3.059,1.113h.009Z" transform="translate(-5.5 -5.73)" fill="none" stroke="#262626" stroke-linecap="round" stroke-linejoin="round" stroke-width="1.5"/>
  </g>
</svg>
