<svg xmlns="http://www.w3.org/2000/svg" width="21.432" height="25.012" viewBox="0 0 21.432 25.012">
  <g id="kg-measure-weight-icon" transform="translate(0.008)">
    <path id="Path_112698" data-name="Path 112698" d="M2.253,25.012H19.164c1.093,0,2.487-1.407,2.229-2.469L18.556,10.882c-.615-2.528-1.474-3.912-4.279-3.912h-2.16a3.633,3.633,0,1,0-2.878,0h-1.9c-2.795,0-3.969,1.571-4.545,3.981L.022,22.543c-.252,1.063,1.138,2.469,2.231,2.469ZM7.586,14.584h.9v1.162l.949-1.162h1.205L9.573,15.738l1.12,1.919H9.579L8.96,16.4l-.47.513v.749h-.9V14.584Zm4.678,1.962v-.639h1.4v1.307a2.86,2.86,0,0,1-.71.393,2.3,2.3,0,0,1-.733.1,1.716,1.716,0,0,1-.851-.187,1.241,1.241,0,0,1-.509-.556,1.9,1.9,0,0,1-.181-.847,1.857,1.857,0,0,1,.2-.875,1.306,1.306,0,0,1,.58-.564,1.807,1.807,0,0,1,.8-.149,2.17,2.17,0,0,1,.727.092.929.929,0,0,1,.4.287,1.294,1.294,0,0,1,.238.493l-.871.165a.5.5,0,0,0-.183-.267.541.541,0,0,0-.33-.094.577.577,0,0,0-.474.218,1.082,1.082,0,0,0-.177.686,1.111,1.111,0,0,0,.179.712.612.612,0,0,0,.5.214.9.9,0,0,0,.289-.045,1.553,1.553,0,0,0,.315-.157V16.55h-.607ZM10.709,10.81a5.252,5.252,0,1,1-5.252,5.252,5.251,5.251,0,0,1,5.252-5.252Zm-.031-8.691A1.514,1.514,0,1,1,9.164,3.633a1.514,1.514,0,0,1,1.514-1.514Z" transform="translate(0)" fill="#3d8d89" fill-rule="evenodd"/>
  </g>
</svg>
