<svg id="Group_143264" data-name="Group 143264" xmlns="http://www.w3.org/2000/svg" xmlns:xlink="http://www.w3.org/1999/xlink" width="66.055" height="65.992" viewBox="0 0 66.055 65.992">
  <defs>
    <clipPath id="clip-path">
      <path id="Path_112734" data-name="Path 112734" d="M32.873,0a33.026,33.026,0,0,0-3.182,65.883,3.983,3.983,0,0,0,2.5-.565c5.392-3.33,27.292-17.782,31.37-20.841.006-.009.006-.019.014-.027.338-.419.518-.934.89-1.33.006,0,.011-.006.016-.011a33.006,33.006,0,0,0,1.578-10.019v-.142q0-.734-.035-1.475A33.141,33.141,0,0,0,34.346.026C33.961.011,33.574,0,33.192,0Z" fill="#ebbb38"/>
    </clipPath>
    <clipPath id="clip-path-2">
      <path id="Path_112735" data-name="Path 112735" d="M76.685,69.851a28.454,28.454,0,0,0-3.523.156,32.935,32.935,0,0,0-18.848,8.552,33.155,33.155,0,0,0-7.5,10.2,4.827,4.827,0,0,1-1.676,1.652c-2.633,1.535-4.024.7-5.349.494a14.975,14.975,0,0,0,4.952.975h.1a5.653,5.653,0,0,0,.7-.038c3.411-.21,12.325-5.148,19.561-10.077a90,90,0,0,0,12.1-9.892,14.861,14.861,0,0,0,1.076-1.063,7.37,7.37,0,0,0,1.282-2.118,3.026,3.026,0,0,1-2.885,1.163" transform="translate(-39.792 -68.688)" fill="none"/>
    </clipPath>
  </defs>
  <g id="Group_143265" data-name="Group 143265" transform="translate(0 0)">
    <g id="Group_143264-2" data-name="Group 143264" clip-path="url(#clip-path)">
      <path id="Path_112736" data-name="Path 112736" d="M0,0H66.055V65.971H0Z" transform="translate(0 0)" fill="#fff"/>
    </g>
  </g>
  <g id="Group_143267" data-name="Group 143267" transform="translate(24.797 42.804)">
    <g id="Group_143266" data-name="Group 143266" transform="translate(0 0)" clip-path="url(#clip-path-2)">
      <path id="Path_112737" data-name="Path 112737" d="M0,0H46.049V39.335H0Z" transform="translate(-9.708 5.227) rotate(-28.301)" fill="#eaeaea"/>
    </g>
  </g>
</svg>
