<svg xmlns="http://www.w3.org/2000/svg" width="25.458" height="25.458" viewBox="0 0 25.458 25.458">
  <g id="plane-icon" transform="translate(0)">
    <path id="Path_112650" data-name="Path 112650" d="M3.447,21.91A4.2,4.2,0,0,1,4.7,19.345L.228,16.519c-.282-.122-.276-.294-.112-.5l.947-.808a.677.677,0,0,1,.551-.1l5.515.932,4.6-4.977L1,3.815C.725,3.655.7,3.475.982,3.265L2.529,2.031l13.985,3.93,4.131-4.417C22.032.344,23.378-.192,24.412.062a1.07,1.07,0,0,1,.947.845c.342,1.048-.189,2.457-1.442,3.907L19.5,8.946l3.93,13.985L22.2,24.479c-.209.278-.39.255-.549-.015l-7.26-10.726L9.41,18.332l.932,5.515a.672.672,0,0,1-.1.551l-.808.947c-.2.164-.375.17-.5-.112L6.114,20.764a4.2,4.2,0,0,1-2.573,1.249c-.077,0-.093-.029-.093-.1Z" transform="translate(-0.002 0)" fill="#38c2b7" fill-rule="evenodd"/>
  </g>
</svg>
