<svg xmlns="http://www.w3.org/2000/svg" width="133.109" height="50.477" viewBox="0 0 133.109 50.477">
  <g id="Group_143302" data-name="Group 143302" transform="translate(-1144.902 -1829.768)">
    <g id="plane-icon" transform="matrix(0.602, 0.799, -0.799, 0.602, 1165.234, 1844.591)">
      <path id="Path_112650" data-name="Path 112650" d="M22.016,3.549a4.2,4.2,0,0,1-1.249,2.565L25.235,8.94c.282.122.276.294.112.5l-.947.808a.677.677,0,0,1-.551.1L18.334,9.41l-4.6,4.977,10.728,7.258c.271.16.294.34.015.549l-1.548,1.235L8.949,19.5,4.817,23.915c-1.386,1.2-2.733,1.736-3.767,1.481A1.07,1.07,0,0,1,.1,24.551c-.342-1.048.189-2.457,1.442-3.907l4.417-4.131L2.033,2.528,3.268.98c.209-.278.39-.255.549.015l7.26,10.726,4.977-4.593-.932-5.515a.672.672,0,0,1,.1-.551l.808-.947c.2-.164.375-.17.5.112l2.826,4.469a4.2,4.2,0,0,1,2.573-1.249c.077,0,.093.029.093.1Z" transform="translate(-0.002 0)" fill="#3d8d89" fill-rule="evenodd"/>
    </g>
    <g id="Group_143300" data-name="Group 143300" transform="matrix(0.839, -0.545, 0.545, 0.839, 1166.118, 1865.234)">
      <g id="Group_143301" data-name="Group 143301">
        <path id="Path_112777" data-name="Path 112777" d="M554.88,126.979a.845.845,0,0,0,.341,1.145q.9.485,1.8.962a.845.845,0,1,0,.789-1.495q-.9-.473-1.785-.953a.844.844,0,0,0-1.145.341" transform="translate(-539.719 -117.736)" fill="#3d8d89"/>
        <path id="Path_112778" data-name="Path 112778" d="M38.833,1.972A.845.845,0,0,0,38.8.282h-.035C38.1.31,37.421.333,36.75.35a.845.845,0,0,0,.044,1.69c.679-.018,1.366-.04,2.039-.068" transform="translate(66.598 30.748)" fill="#3d8d89"/>
        <path id="Path_112779" data-name="Path 112779" d="M358.287,44.955q-.966-.294-1.928-.6a.845.845,0,1,0-.51,1.612q.972.307,1.946.6a.845.845,0,1,0,.492-1.617" transform="translate(-306.621 -21.265)" fill="#3d8d89"/>
        <path id="Path_112780" data-name="Path 112780" d="M.9,3.852c.678-.048,1.363-.1,2.035-.159a.845.845,0,0,0-.071-1.687c-.024,0-.048,0-.073,0-.664.057-1.34.11-2.009.157A.845.845,0,0,0,.9,3.852" transform="translate(108.602 28.643)" fill="#3d8d89"/>
        <path id="Path_112781" data-name="Path 112781" d="M320.688,35.027a.845.845,0,0,0,.586,1.042q.981.275,1.964.539a.845.845,0,0,0,.438-1.632q-.974-.262-1.947-.534a.844.844,0,0,0-1.042.586" transform="translate(-266.188 -9.618)" fill="#3d8d89"/>
        <path id="Path_112782" data-name="Path 112782" d="M457.782,80.682a.845.845,0,0,0-.331,1.623q.938.4,1.881.787a.845.845,0,0,0,.644-1.562q-.935-.385-1.865-.78a.842.842,0,0,0-.33-.067" transform="translate(-425.42 -63.959)" fill="#3d8d89"/>
        <path id="Path_112783" data-name="Path 112783" d="M390.09,56.991q.961.338,1.926.666a.845.845,0,1,0,.544-1.6q-.956-.325-1.909-.66a.845.845,0,0,0-.561,1.595" transform="translate(-346.66 -34.222)" fill="#3d8d89"/>
        <path id="Path_112784" data-name="Path 112784" d="M423.486,68.019a.845.845,0,0,0,.482,1.094q.95.369,1.9.727a.845.845,0,1,0,.595-1.582q-.946-.355-1.888-.721a.844.844,0,0,0-1.094.482" transform="translate(-386.272 -48.465)" fill="#3d8d89"/>
        <path id="Path_112785" data-name="Path 112785" d="M526.069,112.342a.845.845,0,0,0-.389-1.13q-.909-.444-1.813-.9a.845.845,0,0,0-.757,1.511q.912.457,1.829.9a.845.845,0,0,0,1.13-.389" transform="translate(-502.182 -98.612)" fill="#3d8d89"/>
        <path id="Path_112786" data-name="Path 112786" d="M146.688,3.3c-.666-.056-1.341-.116-2.007-.181-.028,0-.055,0-.082,0a.845.845,0,0,0-.08,1.686c.673.065,1.356.126,2.028.182a.845.845,0,0,0,.141-1.684" transform="translate(-59.447 27.319)" fill="#3d8d89"/>
        <path id="Path_112787" data-name="Path 112787" d="M180.265,8.481c.672.091,1.351.178,2.02.259a.845.845,0,0,0,.2-1.678c-.662-.081-1.334-.167-2-.256a.845.845,0,1,0-.226,1.675" transform="translate(-101.264 22.94)" fill="#3d8d89"/>
        <path id="Path_112788" data-name="Path 112788" d="M490.862,94.936a.845.845,0,0,0-.355,1.613q.925.428,1.856.846a.845.845,0,1,0,.693-1.542q-.922-.415-1.84-.839a.842.842,0,0,0-.354-.078" transform="translate(-464.066 -80.681)" fill="#3d8d89"/>
        <path id="Path_112789" data-name="Path 112789" d="M251.242,19.792c.659.137,1.331.273,2,.4a.845.845,0,0,0,.326-1.659c-.659-.13-1.324-.264-1.977-.4a.845.845,0,1,0-.345,1.655" transform="translate(-184.285 9.56)" fill="#3d8d89"/>
        <path id="Path_112790" data-name="Path 112790" d="M110.769.935c-.665-.029-1.342-.063-2.012-.1h-.049a.845.845,0,0,0-.047,1.689c.677.039,1.361.073,2.034.1a.845.845,0,1,0,.074-1.689" transform="translate(-17.495 30.07)" fill="#3d8d89"/>
        <path id="Path_112791" data-name="Path 112791" d="M286.393,27.333c.656.16,1.323.319,1.981.473a.845.845,0,1,0,.383-1.646c-.652-.152-1.312-.309-1.962-.468a.845.845,0,1,0-.4,1.642" transform="translate(-225.395 0.67)" fill="#3d8d89"/>
        <path id="Path_112792" data-name="Path 112792" d="M74.784.019c-.667,0-1.345-.008-2.013-.019h-.014a.845.845,0,0,0-.014,1.69c.676.011,1.362.017,2.037.019h0a.845.845,0,0,0,0-1.69" transform="translate(24.532 31.126)" fill="#3d8d89"/>
        <path id="Path_112793" data-name="Path 112793" d="M589.416,144.983q-.881-.5-1.754-1.01a.845.845,0,1,0-.851,1.46q.881.513,1.769,1.019a.845.845,0,0,0,.836-1.469" transform="translate(-576.645 -138.043)" fill="#3d8d89"/>
        <path id="Path_112794" data-name="Path 112794" d="M215.854,13.494c.663.114,1.339.226,2.009.333a.845.845,0,0,0,.266-1.669c-.663-.106-1.332-.217-1.989-.33a.845.845,0,0,0-.286,1.666" transform="translate(-142.893 17)" fill="#3d8d89"/>
      </g>
    </g>
  </g>
</svg>
