<svg xmlns="http://www.w3.org/2000/svg" width="134.516" height="34.93" viewBox="0 0 134.516 34.93">
  <g id="Group_143311" data-name="Group 143311" transform="translate(-8.192 7.199) rotate(-21)">
    <g id="plane-icon" transform="matrix(-0.602, 0.799, -0.799, -0.602, 133.294, 50.972)">
      <path id="Path_112650" data-name="Path 112650" d="M22.013,21.91a4.2,4.2,0,0,0-1.249-2.565l4.469-2.826c.282-.122.276-.294.112-.5l-.947-.808a.677.677,0,0,0-.551-.1l-5.515.932-4.6-4.977L24.464,3.814c.271-.16.294-.34.015-.549L22.931,2.03,8.946,5.961,4.815,1.543C3.429.344,2.082-.193,1.048.062A1.07,1.07,0,0,0,.1.907C-.24,1.956.29,3.365,1.544,4.815L5.961,8.946,2.031,22.931l1.235,1.548c.209.278.39.255.549-.015l7.26-10.726,4.977,4.593-.932,5.515a.672.672,0,0,0,.1.551l.808.947c.2.164.375.17.5-.112l2.826-4.469a4.2,4.2,0,0,0,2.573,1.249c.077,0,.093-.029.093-.1Z" transform="translate(0 0)" fill="#3d8d89" fill-rule="evenodd"/>
    </g>
    <g id="Group_143300" data-name="Group 143300" transform="matrix(-0.839, -0.545, 0.545, -0.839, 86.021, 78.525)">
      <g id="Group_143301" data-name="Group 143301" transform="translate(0)">
        <path id="Path_112777" data-name="Path 112777" d="M.1,2.205A.845.845,0,0,1,.443,1.06Q1.34.575,2.243.1a.845.845,0,1,1,.789,1.495q-.9.473-1.785.953A.844.844,0,0,1,.1,2.205" transform="translate(5.312 21.388)" fill="#3d8d89"/>
        <path id="Path_112778" data-name="Path 112778" d="M2.907.068a.845.845,0,0,1-.034,1.69H2.838C2.172,1.73,1.494,1.707.823,1.69A.845.845,0,0,1,.867,0c.679.018,1.366.04,2.039.068" transform="translate(92.778 0.048)" fill="#3d8d89"/>
        <path id="Path_112779" data-name="Path 112779" d="M3.029,1.654q-.966.294-1.928.6A.845.845,0,1,1,.591.64q.972-.307,1.946-.6a.845.845,0,1,1,.492,1.617" transform="translate(38.892 7.491)" fill="#3d8d89"/>
        <path id="Path_112780" data-name="Path 112780" d="M.9,0C1.582.05,2.267.1,2.939.161a.845.845,0,0,1-.071,1.687c-.024,0-.048,0-.073,0-.664-.057-1.34-.11-2.009-.157A.845.845,0,0,1,.9,0" transform="translate(98.856 0.339)" fill="#3d8d89"/>
        <path id="Path_112781" data-name="Path 112781" d="M.032,1.61A.845.845,0,0,1,.617.568Q1.6.293,2.582.029A.845.845,0,0,1,3.02,1.662q-.974.262-1.947.534A.844.844,0,0,1,.032,1.61" transform="translate(44.722 5.816)" fill="#3d8d89"/>
        <path id="Path_112782" data-name="Path 112782" d="M.846,2.475A.845.845,0,0,1,.515.851Q1.453.453,2.4.064A.845.845,0,1,1,3.04,1.627q-.935.385-1.865.78a.842.842,0,0,1-.33.067" transform="translate(21.77 13.638)" fill="#3d8d89"/>
        <path id="Path_112783" data-name="Path 112783" d="M.565.711Q1.526.373,2.491.045a.845.845,0,1,1,.544,1.6q-.956.325-1.909.66A.845.845,0,0,1,.565.711" transform="translate(33.119 9.355)" fill="#3d8d89"/>
        <path id="Path_112784" data-name="Path 112784" d="M.057,1.875A.845.845,0,0,1,.54.782q.95-.369,1.9-.727a.845.845,0,1,1,.595,1.582q-.946.355-1.888.721A.844.844,0,0,1,.057,1.875" transform="translate(27.411 11.406)" fill="#3d8d89"/>
        <path id="Path_112785" data-name="Path 112785" d="M3.426.475A.845.845,0,0,1,3.037,1.6q-.909.444-1.813.9A.845.845,0,0,1,.467.99Q1.379.533,2.3.086a.845.845,0,0,1,1.13.389" transform="translate(10.715 18.631)" fill="#3d8d89"/>
        <path id="Path_112786" data-name="Path 112786" d="M2.933,1.688c-.666.056-1.341.116-2.007.181-.028,0-.055,0-.082,0A.845.845,0,0,1,.764.186C1.437.121,2.12.059,2.792,0a.845.845,0,0,1,.141,1.684" transform="translate(74.562 0.527)" fill="#3d8d89"/>
        <path id="Path_112787" data-name="Path 112787" d="M.732.266C1.4.175,2.084.088,2.752.006a.845.845,0,0,1,.2,1.678c-.662.081-1.334.167-2,.256A.845.845,0,1,1,.732.266" transform="translate(68.522 1.149)" fill="#3d8d89"/>
        <path id="Path_112788" data-name="Path 112788" d="M.846,2.533A.845.845,0,0,1,.491.921Q1.416.493,2.346.075A.845.845,0,1,1,3.04,1.616q-.922.415-1.84.839a.842.842,0,0,1-.354.078" transform="translate(16.204 16.047)" fill="#3d8d89"/>
        <path id="Path_112789" data-name="Path 112789" d="M.673.42c.659-.137,1.331-.273,2-.4a.845.845,0,0,1,.326,1.658c-.659.13-1.324.264-1.977.4A.845.845,0,1,1,.673.42" transform="translate(56.538 3.063)" fill="#3d8d89"/>
        <path id="Path_112790" data-name="Path 112790" d="M2.9,1.69c-.665.029-1.342.063-2.012.1H.844A.845.845,0,0,1,.8.1C1.474.065,2.158.03,2.831,0A.845.845,0,1,1,2.9,1.69" transform="translate(80.623 0.141)" fill="#3d8d89"/>
        <path id="Path_112791" data-name="Path 112791" d="M.645.495C1.3.334,1.967.175,2.626.022a.845.845,0,1,1,.383,1.646c-.652.152-1.312.309-1.962.468A.845.845,0,1,1,.645.495" transform="translate(50.606 4.338)" fill="#3d8d89"/>
        <path id="Path_112792" data-name="Path 112792" d="M2.872,1.69c-.667,0-1.345.008-2.013.019H.845A.845.845,0,0,1,.831.019C1.508.008,2.193,0,2.868,0h0a.845.845,0,0,1,0,1.69" transform="translate(86.698 0)" fill="#3d8d89"/>
        <path id="Path_112793" data-name="Path 112793" d="M3.025,1.58q-.881.5-1.754,1.01A.845.845,0,1,1,.42,1.13Q1.3.616,2.189.111A.845.845,0,0,1,3.025,1.58" transform="translate(0 24.316)" fill="#3d8d89"/>
        <path id="Path_112794" data-name="Path 112794" d="M.7.343C1.365.23,2.041.117,2.711.011A.845.845,0,0,1,2.977,1.68c-.663.106-1.332.217-1.989.33A.845.845,0,0,1,.7.343" transform="translate(62.512 1.997)" fill="#3d8d89"/>
      </g>
    </g>
  </g>
</svg>
