<svg xmlns="http://www.w3.org/2000/svg" xmlns:xlink="http://www.w3.org/1999/xlink" width="145" height="57" viewBox="0 0 145 57">
  <defs>
    <clipPath id="clip-path">
      <rect id="Rectangle_10333" data-name="Rectangle 10333" width="145" height="57" transform="translate(1071 4963)" fill="#fff" opacity="0"/>
    </clipPath>
    <clipPath id="clip-path-2">
      <rect id="Rectangle_10323" data-name="Rectangle 10323" width="52.794" height="131.457" fill="#d6d6d6"/>
    </clipPath>
    <linearGradient id="linear-gradient" x1="1.166" y1="-3.351" x2="0.216" y2="1.151" gradientUnits="objectBoundingBox">
      <stop offset="0" stop-color="#f8a300"/>
      <stop offset="0.1" stop-color="#ebbb38"/>
      <stop offset="0.224" stop-color="#f8a300"/>
      <stop offset="1" stop-color="#ebbb38"/>
    </linearGradient>
  </defs>
  <g id="Mask_Group_21" data-name="Mask Group 21" transform="translate(-1071 -4963)" clip-path="url(#clip-path)">
    <g id="Group_143368" data-name="Group 143368">
      <g id="Group_143314" data-name="Group 143314" transform="matrix(-0.342, -0.94, 0.94, -0.342, 1081.66, 5035.015)">
        <g id="Group_143313" data-name="Group 143313" transform="translate(0 0)" clip-path="url(#clip-path-2)">
          <path id="Path_112880" data-name="Path 112880" d="M1.856.354A1.039,1.039,0,0,1,3.418,1.725C2.887,2.33,2.36,2.961,1.854,3.6A1.039,1.039,0,0,1,.225,2.309C.752,1.643,1.3.985,1.856.354" transform="translate(11.453 77.948)" fill="#d6d6d6"/>
          <path id="Path_112881" data-name="Path 112881" d="M1.046,0h.017A1.039,1.039,0,0,1,2.086,1.056q-.007.423-.007.847c0,.528.008,1.066.025,1.6A1.039,1.039,0,0,1,1.1,4.572H1.064A1.039,1.039,0,0,1,.026,3.566C.009,3.012,0,2.452,0,1.9q0-.44.007-.88A1.039,1.039,0,0,1,1.046,0" transform="translate(0 112.215)" fill="#d6d6d6"/>
          <path id="Path_112882" data-name="Path 112882" d="M.751.041a1.039,1.039,0,0,1,1.287.71c.225.779.474,1.561.739,2.325a1.039,1.039,0,1,1-1.963.682C.537,2.96.277,2.143.041,1.328A1.039,1.039,0,0,1,.751.041" transform="translate(1.941 127)" fill="#d6d6d6"/>
          <path id="Path_112883" data-name="Path 112883" d="M.076,2.941C.393,2.158.732,1.373,1.084.606a1.039,1.039,0,1,1,1.889.867C2.634,2.211,2.308,2.967,2,3.72a1.04,1.04,0,0,1-1.927-.78" transform="translate(3.973 90.479)" fill="#d6d6d6"/>
          <path id="Path_112884" data-name="Path 112884" d="M.432,1.631C1.074,1.168,1.747.695,2.491.183A1.039,1.039,0,0,1,3.669,1.9c-.731.5-1.392.968-2.022,1.422A1.039,1.039,0,1,1,.432,1.631" transform="translate(22.349 68.247)" fill="#d6d6d6"/>
          <path id="Path_112885" data-name="Path 112885" d="M1.7.7q.27-.232.544-.46a1.039,1.039,0,1,1,1.333,1.6q-.263.22-.523.443c-.442.379-.883.772-1.31,1.167A1.039,1.039,0,0,1,.333,1.923C.779,1.509,1.24,1.1,1.7.7" transform="translate(16.527 72.729)" fill="#d6d6d6"/>
          <path id="Path_112886" data-name="Path 112886" d="M.906.008a1.041,1.041,0,0,1,1.164.9c.1.8.23,1.617.374,2.413A1.039,1.039,0,1,1,.4,3.689C.248,2.859.117,2.012.009,1.173A1.039,1.039,0,0,1,.906.008" transform="translate(0.423 119.68)" fill="#d6d6d6"/>
          <path id="Path_112887" data-name="Path 112887" d="M2.2,1.045c0,.858-.047,1.725-.124,2.579a1.039,1.039,0,0,1-1.034.946c-.031,0-.063,0-.095,0A1.039,1.039,0,0,1,0,3.437c.072-.8.111-1.6.115-2.4A1.039,1.039,0,0,1,1.159,0h.006A1.039,1.039,0,0,1,2.2,1.045" transform="translate(50.596 34.615)" fill="#d6d6d6"/>
          <path id="Path_112888" data-name="Path 112888" d="M1.562,4.518A1.04,1.04,0,0,1,.538,3.651C.4,2.861.235,2.072.034,1.3A1.039,1.039,0,0,1,2.045.777c.217.828.4,1.678.543,2.528a1.04,1.04,0,0,1-.852,1.2,1.058,1.058,0,0,1-.174.015" transform="translate(49.791 27.21)" fill="#d6d6d6"/>
          <path id="Path_112889" data-name="Path 112889" d="M2.017,3.773A1.039,1.039,0,0,1,.062,3.066C.333,2.317.575,1.546.781.772a1.039,1.039,0,0,1,2.009.535c-.222.832-.482,1.661-.773,2.466" transform="translate(48.982 42.013)" fill="#d6d6d6"/>
          <path id="Path_112890" data-name="Path 112890" d="M1.465.477A1.039,1.039,0,0,1,3.213,1.6c-.438.68-.866,1.383-1.274,2.087A1.039,1.039,0,1,1,.14,2.648c.424-.733.87-1.464,1.325-2.171" transform="translate(7.252 83.92)" fill="#d6d6d6"/>
          <path id="Path_112891" data-name="Path 112891" d="M1.532.013A1.04,1.04,0,0,1,2.4,1.2c-.126.8-.235,1.617-.324,2.425a1.04,1.04,0,0,1-1.032.926,1.08,1.08,0,0,1-.115-.006A1.04,1.04,0,0,1,.006,3.4C.1,2.559.212,1.711.343.878A1.039,1.039,0,0,1,1.532.013" transform="translate(0.323 104.765)" fill="#d6d6d6"/>
          <path id="Path_112892" data-name="Path 112892" d="M1.417,3.651A19.285,19.285,0,0,0,.185,1.632,1.039,1.039,0,0,1,1.894.447,21.357,21.357,0,0,1,3.258,2.685a1.039,1.039,0,1,1-1.841.966" transform="translate(46.76 20.414)" fill="#d6d6d6"/>
          <path id="Path_112893" data-name="Path 112893" d="M.032,3.189C.239,2.371.467,1.547.71.74a1.039,1.039,0,1,1,1.99.6c-.234.777-.454,1.571-.653,2.359A1.039,1.039,0,0,1,.032,3.189" transform="translate(1.652 97.474)" fill="#d6d6d6"/>
          <path id="Path_112894" data-name="Path 112894" d="M2.568,3.236c-.667-.448-1.36-.886-2.06-1.3A1.039,1.039,0,0,1,1.571.146C2.3.582,3.03,1.041,3.727,1.51A1.039,1.039,0,1,1,2.568,3.236" transform="translate(35.641 10.556)" fill="#d6d6d6"/>
          <path id="Path_112895" data-name="Path 112895" d="M.466,1.552Q1.506.864,2.542.175A1.039,1.039,0,0,1,3.7,1.9Q2.657,2.6,1.613,3.286A1.039,1.039,0,0,1,.466,1.552" transform="translate(28.534 64.089)" fill="#d6d6d6"/>
          <path id="Path_112896" data-name="Path 112896" d="M2.072.32a1.039,1.039,0,1,1,1.5,1.44c-.573.6-1.188,1.2-1.827,1.788A1.039,1.039,0,1,1,.335,2.019C.944,1.458,1.528.886,2.072.32" transform="translate(40.56 54.837)" fill="#d6d6d6"/>
          <path id="Path_112897" data-name="Path 112897" d="M2.889,2.978C2.156,2.638,1.4,2.309.648,2A1.039,1.039,0,0,1,1.432.077C2.217.4,3,.738,3.765,1.093a1.039,1.039,0,1,1-.876,1.885" transform="translate(28.942 7.234)" fill="#d6d6d6"/>
          <path id="Path_112898" data-name="Path 112898" d="M.433,1.679C1.14,1.172,1.788.693,2.414.214A1.039,1.039,0,0,1,3.677,1.865c-.643.492-1.307.983-2.031,1.5A1.039,1.039,0,0,1,.433,1.679" transform="translate(34.726 59.777)" fill="#d6d6d6"/>
          <path id="Path_112899" data-name="Path 112899" d="M.947,1.41c.186-.292.37-.593.545-.894a1.039,1.039,0,0,1,1.8,1.046c-.189.325-.387.65-.589.966-.258.4-.532.811-.811,1.207a1.039,1.039,0,1,1-1.7-1.2c.261-.369.516-.748.757-1.125" transform="translate(45.525 48.908)" fill="#d6d6d6"/>
          <path id="Path_112900" data-name="Path 112900" d="M.359,1.825A1.039,1.039,0,0,1,1.72.254C2.377.823,3.01,1.411,3.6,2A1.039,1.039,0,0,1,2.133,3.473C1.576,2.916.979,2.362.359,1.825" transform="translate(41.716 14.911)" fill="#d6d6d6"/>
          <path id="Path_112901" data-name="Path 112901" d="M11.086,7.1l1.084,8.341C9.308,11.566,4.232,7.381,0,4.649,4.99,3.96,11.357,2.307,15.588,0Z" transform="translate(15.799 0)" fill="#d6d6d6"/>
        </g>
      </g>
      <path id="Vector" d="M12.162,1.711l-.056,3.035A1.666,1.666,0,0,0,12.7,5.963l1.986,1.505c1.273.961,1.065,2.138-.456,2.618l-2.586.809a1.669,1.669,0,0,0-1,1.049L10.024,14.3c-.488,1.858-1.706,2.042-2.714.408L5.9,12.425a1.648,1.648,0,0,0-1.345-.7l-2.674.136c-1.914.1-2.458-1.009-1.209-2.466L2.257,7.549a1.666,1.666,0,0,0,.3-1.417L1.745,3.545c-.472-1.521.376-2.362,1.89-1.866L6,2.456a1.671,1.671,0,0,0,1.337-.208L9.8.47C11.129-.491,12.194.07,12.162,1.711Z" transform="translate(1205.297 4962.564) rotate(45)" fill="url(#linear-gradient)"/>
    </g>
  </g>
</svg>
