<svg xmlns="http://www.w3.org/2000/svg" width="35.777" height="35.777" viewBox="0 0 35.777 35.777">
  <g id="truck-tick" transform="translate(0.636 0.635)">
    <g id="vuesax_twotone_truck-tick" data-name="vuesax/twotone/truck-tick" transform="translate(8.838) rotate(19)">
      <g id="truck-tick-2" data-name="truck-tick">
        <path id="Vector" d="M0,11.311a2.269,2.269,0,0,0,2.262,2.262H14.7V6.357a4.41,4.41,0,0,1-3.5,1.561,4.347,4.347,0,0,1-2.941-1.2A3.83,3.83,0,0,1,7.4,5.644a4.405,4.405,0,0,1-.611-2.353A4.505,4.505,0,0,1,8.325,0H0Z" transform="translate(10.18 2.262)" fill="none" stroke="#f8a300" stroke-linecap="round" stroke-linejoin="round" stroke-width="1.5" stroke-dasharray="0 0" opacity="0.4"/>
        <path id="Vector-2" data-name="Vector" d="M0,13.573a3.389,3.389,0,0,0,3.393,3.393H4.524a2.262,2.262,0,1,1,4.524,0h4.524a2.262,2.262,0,1,1,4.524,0h1.131a3.389,3.389,0,0,0,3.393-3.393V10.18H10.18A2.269,2.269,0,0,1,7.918,7.918V0H5.837A2.281,2.281,0,0,0,3.868,1.142L1.934,4.524H3.393A1.134,1.134,0,0,1,4.524,5.656V9.049A1.134,1.134,0,0,1,3.393,10.18H0Z" transform="translate(2.262 5.656)" fill="none" stroke="#f8a300" stroke-linecap="round" stroke-linejoin="round" stroke-width="1.5" stroke-dasharray="0 0"/>
        <path id="Vector-3" data-name="Vector" d="M2.262,4.524A2.262,2.262,0,1,0,0,2.262,2.262,2.262,0,0,0,2.262,4.524Z" transform="translate(15.836 20.36)" fill="none" stroke="#f8a300" stroke-linecap="round" stroke-linejoin="round" stroke-width="1.5" stroke-dasharray="0 0"/>
        <path id="Vector-4" data-name="Vector" d="M2.262,4.524A2.262,2.262,0,1,0,0,2.262,2.262,2.262,0,0,0,2.262,4.524Z" transform="translate(6.787 20.36)" fill="none" stroke="#f8a300" stroke-linecap="round" stroke-linejoin="round" stroke-width="1.5" stroke-dasharray="0 0"/>
        <path id="Vector-5" data-name="Vector" d="M0,5.656H3.393A1.134,1.134,0,0,0,4.524,4.524V1.131A1.134,1.134,0,0,0,3.393,0H1.934L0,3.393Z" transform="translate(2.262 10.18)" fill="none" stroke="#f8a300" stroke-linecap="round" stroke-linejoin="round" stroke-width="1.5" stroke-dasharray="0 0"/>
        <g id="Group" transform="translate(16.966 1.13)">
          <path id="Vector-6" data-name="Vector" d="M.612,6.776a3.83,3.83,0,0,0,.871,1.075,4.347,4.347,0,0,0,2.941,1.2,4.41,4.41,0,0,0,3.5-1.561,3.957,3.957,0,0,0,.419-.554,4.373,4.373,0,0,0,.713-2.307A4.526,4.526,0,0,0,0,4.424,4.405,4.405,0,0,0,.612,6.776Z" transform="translate(0 0)" fill="none" stroke="#f8a300" stroke-linecap="round" stroke-linejoin="round" stroke-miterlimit="10" stroke-width="1.5" stroke-dasharray="0 0"/>
          <path id="Vector-7" data-name="Vector" d="M3.506,1.2,2.364,2.285,0,0" transform="translate(2.784 3.36)" fill="none" stroke="#f8a300" stroke-linecap="round" stroke-linejoin="round" stroke-width="1.5" stroke-dasharray="0 0" opacity="0.4"/>
        </g>
        <path id="Vector-8" data-name="Vector" d="M0,0V27.147H27.147V0Z" fill="none" stroke="#f8a300" stroke-width="1" opacity="0"/>
      </g>
    </g>
  </g>
</svg>
