<svg xmlns="http://www.w3.org/2000/svg" width="27" height="27" viewBox="0 0 27 27">
  <g id="vuesax_twotone_box" data-name="vuesax/twotone/box" transform="translate(0.5 0.5)">
    <g id="box">
      <g id="Group_642" data-name="Group 642" transform="translate(3.434 8.06)" opacity="0.4">
        <path id="Vector" d="M0,0,9.566,5.536l9.5-5.5" fill="none" stroke="#245955" stroke-linecap="round" stroke-linejoin="round" stroke-width="1.5" stroke-dasharray="0 0"/>
        <path id="Vector-2" data-name="Vector" d="M0,9.826V0" transform="translate(9.566 5.525)" fill="none" stroke="#245955" stroke-linecap="round" stroke-linejoin="round" stroke-width="1.5" stroke-dasharray="0 0"/>
      </g>
      <path id="Vector-3" data-name="Vector" d="M2.383,3.728A5.112,5.112,0,0,0,0,7.769V13.89a5.112,5.112,0,0,0,2.383,4.041l5.785,3.218a5.192,5.192,0,0,0,4.5,0l5.785-3.218a5.112,5.112,0,0,0,2.383-4.041V7.769a5.112,5.112,0,0,0-2.383-4.041L12.664.511a5.155,5.155,0,0,0-4.5.011Z" transform="translate(2.59 2.165)" fill="none" stroke="#245955" stroke-linecap="round" stroke-linejoin="round" stroke-width="1.5" stroke-dasharray="0 0"/>
      <path id="Vector-4" data-name="Vector" d="M26,0V26H0V0Z" transform="translate(26 26) rotate(180)" fill="none" stroke="#245955" stroke-width="1" opacity="0"/>
    </g>
  </g>
</svg>
