<svg xmlns="http://www.w3.org/2000/svg" width="25.458" height="25.458" viewBox="0 0 25.458 25.458">
  <g id="plane-icon" transform="translate(0)">
    <path id="Path_112650" data-name="Path 112650" d="M22.016,3.549a4.2,4.2,0,0,1-1.249,2.565L25.235,8.94c.282.122.276.294.112.5l-.947.808a.677.677,0,0,1-.551.1L18.334,9.41l-4.6,4.977,10.728,7.258c.271.16.294.34.015.549l-1.548,1.235L8.949,19.5,4.817,23.915c-1.386,1.2-2.733,1.736-3.767,1.481A1.07,1.07,0,0,1,.1,24.551c-.342-1.048.189-2.457,1.442-3.907l4.417-4.131L2.033,2.528,3.268.98c.209-.278.39-.255.549.015l7.26,10.726,4.977-4.593-.932-5.515a.672.672,0,0,1,.1-.551l.808-.947c.2-.164.375-.17.5.112l2.826,4.469a4.2,4.2,0,0,1,2.573-1.249c.077,0,.093.029.093.1Z" transform="translate(-0.002 0)" fill="#f8a300" fill-rule="evenodd"/>
  </g>
</svg>
