<svg xmlns="http://www.w3.org/2000/svg" xmlns:xlink="http://www.w3.org/1999/xlink" width="125" height="76" viewBox="0 0 125 76">
  <defs>
    <clipPath id="clip-path">
      <rect id="Rectangle_10332" data-name="Rectangle 10332" width="125" height="76" transform="translate(716 1258)" fill="#fff" opacity="0"/>
    </clipPath>
    <clipPath id="clip-path-2">
      <rect id="Rectangle_10322" data-name="Rectangle 10322" width="106.876" height="71.381" fill="#3d8d89"/>
    </clipPath>
  </defs>
  <g id="Mask_Group_20" data-name="Mask Group 20" transform="translate(-716 -1258)" clip-path="url(#clip-path)">
    <g id="Group_143298" data-name="Group 143298">
      <g id="truck-tick" transform="matrix(0.819, -0.574, 0.574, 0.819, 798.154, 1273.156)">
        <g id="vuesax_twotone_truck-tick" data-name="vuesax/twotone/truck-tick" transform="translate(8.838) rotate(19)">
          <g id="truck-tick-2" data-name="truck-tick">
            <path id="Vector" d="M0,11.311a2.269,2.269,0,0,0,2.262,2.262H14.7V6.357a4.41,4.41,0,0,1-3.5,1.561,4.347,4.347,0,0,1-2.941-1.2A3.83,3.83,0,0,1,7.4,5.644a4.405,4.405,0,0,1-.611-2.353A4.505,4.505,0,0,1,8.325,0H0Z" transform="translate(10.18 2.262)" fill="none" stroke="#3d8d89" stroke-linecap="round" stroke-linejoin="round" stroke-width="1.5" stroke-dasharray="0 0" opacity="0.4"/>
            <path id="Vector-2" data-name="Vector" d="M0,13.573a3.389,3.389,0,0,0,3.393,3.393H4.524a2.262,2.262,0,1,1,4.524,0h4.524a2.262,2.262,0,1,1,4.524,0h1.131a3.389,3.389,0,0,0,3.393-3.393V10.18H10.18A2.269,2.269,0,0,1,7.918,7.918V0H5.837A2.281,2.281,0,0,0,3.868,1.142L1.934,4.524H3.393A1.134,1.134,0,0,1,4.524,5.656V9.049A1.134,1.134,0,0,1,3.393,10.18H0Z" transform="translate(2.262 5.656)" fill="none" stroke="#3d8d89" stroke-linecap="round" stroke-linejoin="round" stroke-width="1.5" stroke-dasharray="0 0"/>
            <path id="Vector-3" data-name="Vector" d="M2.262,4.524A2.262,2.262,0,1,0,0,2.262,2.262,2.262,0,0,0,2.262,4.524Z" transform="translate(15.836 20.36)" fill="none" stroke="#3d8d89" stroke-linecap="round" stroke-linejoin="round" stroke-width="1.5" stroke-dasharray="0 0"/>
            <path id="Vector-4" data-name="Vector" d="M2.262,4.524A2.262,2.262,0,1,0,0,2.262,2.262,2.262,0,0,0,2.262,4.524Z" transform="translate(6.787 20.36)" fill="none" stroke="#3d8d89" stroke-linecap="round" stroke-linejoin="round" stroke-width="1.5" stroke-dasharray="0 0"/>
            <path id="Vector-5" data-name="Vector" d="M0,5.656H3.393A1.134,1.134,0,0,0,4.524,4.524V1.131A1.134,1.134,0,0,0,3.393,0H1.934L0,3.393Z" transform="translate(2.262 10.18)" fill="none" stroke="#3d8d89" stroke-linecap="round" stroke-linejoin="round" stroke-width="1.5" stroke-dasharray="0 0"/>
            <g id="Group" transform="translate(16.966 1.13)">
              <path id="Vector-6" data-name="Vector" d="M.612,6.776a3.83,3.83,0,0,0,.871,1.075,4.347,4.347,0,0,0,2.941,1.2,4.41,4.41,0,0,0,3.5-1.561,3.957,3.957,0,0,0,.419-.554,4.373,4.373,0,0,0,.713-2.307A4.526,4.526,0,0,0,0,4.424,4.405,4.405,0,0,0,.612,6.776Z" transform="translate(0 0)" fill="none" stroke="#3d8d89" stroke-linecap="round" stroke-linejoin="round" stroke-miterlimit="10" stroke-width="1.5" stroke-dasharray="0 0"/>
              <path id="Vector-7" data-name="Vector" d="M3.506,1.2,2.364,2.285,0,0" transform="translate(2.784 3.36)" fill="none" stroke="#3d8d89" stroke-linecap="round" stroke-linejoin="round" stroke-width="1.5" stroke-dasharray="0 0" opacity="0.4"/>
            </g>
            <path id="Vector-8" data-name="Vector" d="M0,0V27.147H27.147V0Z" fill="none" stroke="#3d8d89" stroke-width="1" opacity="0"/>
          </g>
        </g>
      </g>
      <g id="Group_143297" data-name="Group 143297" transform="translate(736.109 1259.327) rotate(16)">
        <g id="Group_143296" data-name="Group 143296" clip-path="url(#clip-path-2)">
          <path id="Path_112738" data-name="Path 112738" d="M673.351,2.587a.772.772,0,0,0,1.092.03c.446-.422.9-.856,1.346-1.29A.773.773,0,1,0,674.712.219c-.442.429-.89.858-1.331,1.276a.772.772,0,0,0-.03,1.092" transform="translate(-569.147 0)" fill="#3d8d89"/>
          <path id="Path_112739" data-name="Path 112739" d="M619.736,50.814a.77.77,0,0,0,.485-.172c.476-.385.961-.782,1.442-1.181a.773.773,0,0,0-.987-1.189c-.476.395-.956.788-1.426,1.169a.772.772,0,0,0,.486,1.373" transform="translate(-523.34 -40.664)" fill="#3d8d89"/>
          <path id="Path_112740" data-name="Path 112740" d="M407.375,181.676a.772.772,0,0,0-1.022-.386c-.556.251-1.123.5-1.685.748a.773.773,0,1,0,.618,1.416c.568-.248,1.141-.5,1.7-.756a.772.772,0,0,0,.386-1.022" transform="translate(-341.759 -153.225)" fill="#3d8d89"/>
          <path id="Path_112741" data-name="Path 112741" d="M339.946,209.794a.772.772,0,0,0-.525-1.453c-.575.208-1.16.415-1.738.615a.772.772,0,1,0,.506,1.459c.584-.2,1.175-.412,1.757-.622" transform="translate(-285.075 -176.115)" fill="#3d8d89"/>
          <path id="Path_112742" data-name="Path 112742" d="M276.978,92.846a15.735,15.735,0,0,1,1.617.707.772.772,0,1,0,.7-1.379,17.258,17.258,0,0,0-1.777-.777.772.772,0,0,0-.538,1.448" transform="translate(-233.762 -77.237)" fill="#3d8d89"/>
          <path id="Path_112743" data-name="Path 112743" d="M345.272,275.572a.772.772,0,0,0,1.026-.375c.269-.579.518-1.17.742-1.758a.772.772,0,1,0-1.444-.55c-.211.554-.446,1.111-.7,1.656a.772.772,0,0,0,.375,1.026" transform="translate(-291.553 -230.31)" fill="#3d8d89"/>
          <path id="Path_112744" data-name="Path 112744" d="M357.113,240.965a.773.773,0,0,0,.754-.608c.078-.356.148-.719.21-1.079.046-.266.087-.539.123-.812a.772.772,0,1,0-1.532-.2c-.033.253-.071.505-.113.751-.058.337-.124.678-.2,1.012a.773.773,0,0,0,.756.937" transform="translate(-301.289 -200.887)" fill="#3d8d89"/>
          <path id="Path_112745" data-name="Path 112745" d="M332.415,135.5a.773.773,0,0,0-.181,1.077c.343.481.672.986.976,1.5a.772.772,0,0,0,1.329-.789c-.327-.55-.679-1.091-1.047-1.607a.772.772,0,0,0-1.077-.181" transform="translate(-280.787 -114.443)" fill="#3d8d89"/>
          <path id="Path_112746" data-name="Path 112746" d="M326.8,307.37a.772.772,0,0,0,1.079-.167c.376-.513.738-1.041,1.075-1.569a.772.772,0,1,0-1.3-.833c-.32.5-.663,1-1.02,1.489a.772.772,0,0,0,.167,1.08" transform="translate(-276.044 -257.412)" fill="#3d8d89"/>
          <path id="Path_112747" data-name="Path 112747" d="M310.258,110.617c-.462-.452-.947-.882-1.441-1.279a.772.772,0,0,0-.968,1.2c.456.366.9.764,1.33,1.181a.772.772,0,1,0,1.08-1.105" transform="translate(-260.045 -92.302)" fill="#3d8d89"/>
          <path id="Path_112748" data-name="Path 112748" d="M359.788,202.365a.772.772,0,1,0-1.531.206c.08.592.135,1.191.164,1.781a.773.773,0,0,0,.771.734h.039a.773.773,0,0,0,.733-.81c-.032-.633-.091-1.276-.176-1.91" transform="translate(-302.904 -170.536)" fill="#3d8d89"/>
          <path id="Path_112749" data-name="Path 112749" d="M440.043,166.2a.773.773,0,0,0-1.036-.347c-.548.273-1.1.546-1.655.813a.772.772,0,1,0,.672,1.391c.557-.269,1.12-.545,1.673-.821a.772.772,0,0,0,.347-1.036" transform="translate(-369.417 -140.166)" fill="#3d8d89"/>
          <path id="Path_112750" data-name="Path 112750" d="M303.657,221.926a.779.779,0,0,0,.211-.029c.572-.162,1.16-.338,1.8-.537a.772.772,0,0,0-.462-1.474c-.623.195-1.2.367-1.756.525a.773.773,0,0,0,.21,1.516" transform="translate(-256.093 -185.885)" fill="#3d8d89"/>
          <path id="Path_112751" data-name="Path 112751" d="M349.231,168c.218.554.417,1.123.59,1.693a.773.773,0,0,0,1.478-.451c-.186-.608-.4-1.217-.63-1.808a.772.772,0,0,0-1.437.566" transform="translate(-295.233 -141.151)" fill="#3d8d89"/>
          <path id="Path_112752" data-name="Path 112752" d="M371.711,197.637a.768.768,0,0,0,.281-.053c.575-.225,1.158-.457,1.732-.69a.772.772,0,1,0-.581-1.431c-.568.231-1.144.46-1.713.682a.773.773,0,0,0,.281,1.492" transform="translate(-313.632 -165.218)" fill="#3d8d89"/>
          <path id="Path_112753" data-name="Path 112753" d="M503.52,131.579a.773.773,0,0,0-1.059-.266c-.525.314-1.06.63-1.589.937a.772.772,0,1,0,.777,1.335c.534-.311,1.074-.629,1.605-.947a.773.773,0,0,0,.266-1.059" transform="translate(-423.168 -110.934)" fill="#3d8d89"/>
          <path id="Path_112754" data-name="Path 112754" d="M268.6,230.762c.606-.08,1.237-.183,1.875-.306a.772.772,0,1,0-.293-1.517c-.608.117-1.208.216-1.784.292a.773.773,0,0,0,.1,1.538.793.793,0,0,0,.1-.007" transform="translate(-226.361 -193.558)" fill="#3d8d89"/>
          <path id="Path_112755" data-name="Path 112755" d="M71.543,417.724c-.609.03-1.228.055-1.84.075a.772.772,0,0,0,.025,1.544h.026c.62-.02,1.248-.046,1.865-.076a.772.772,0,1,0-.075-1.543" transform="translate(-58.302 -353.189)" fill="#3d8d89"/>
          <path id="Path_112756" data-name="Path 112756" d="M647.286,27.344a.77.77,0,0,0,.508-.191c.461-.4.93-.82,1.395-1.236a.772.772,0,1,0-1.032-1.15c-.459.412-.924.824-1.38,1.223a.772.772,0,0,0,.509,1.354" transform="translate(-546.634 -20.774)" fill="#3d8d89"/>
          <path id="Path_112757" data-name="Path 112757" d="M592.322,70.707c-.487.373-.981.748-1.47,1.113a.772.772,0,0,0,.925,1.238c.494-.369.994-.748,1.486-1.125a.772.772,0,1,0-.94-1.226" transform="translate(-499.309 -59.648)" fill="#3d8d89"/>
          <path id="Path_112758" data-name="Path 112758" d="M157.962,166.241a.772.772,0,0,0-1.538.146,10.01,10.01,0,0,0,.208,1.291c.052.226.112.453.18.676a.772.772,0,1,0,1.478-.448c-.057-.189-.109-.382-.152-.573a8.453,8.453,0,0,1-.176-1.091" transform="translate(-132.255 -139.967)" fill="#3d8d89"/>
          <path id="Path_112759" data-name="Path 112759" d="M534.237,112.48a.773.773,0,0,0-1.069-.225c-.514.335-1.036.67-1.551,1a.772.772,0,1,0,.827,1.3c.521-.33,1.049-.669,1.568-1.008a.773.773,0,0,0,.226-1.069" transform="translate(-449.184 -94.807)" fill="#3d8d89"/>
          <path id="Path_112760" data-name="Path 112760" d="M108.289,415.736a.773.773,0,0,0-.847-.69c-.6.061-1.219.118-1.832.169a.772.772,0,0,0,.063,1.542l.065,0c.623-.052,1.249-.109,1.861-.172a.772.772,0,0,0,.69-.847" transform="translate(-88.695 -350.922)" fill="#3d8d89"/>
          <path id="Path_112761" data-name="Path 112761" d="M214.091,392.835a.773.773,0,0,0-1-.444c-.547.21-1.123.416-1.712.612a.772.772,0,1,0,.487,1.466c.611-.2,1.21-.417,1.779-.636a.773.773,0,0,0,.444-1" transform="translate(-178.278 -331.727)" fill="#3d8d89"/>
          <path id="Path_112762" data-name="Path 112762" d="M246.123,377.091c-.524.3-1.064.583-1.6.854a.772.772,0,1,0,.693,1.381c.562-.282,1.124-.581,1.67-.889a.773.773,0,0,0-.759-1.346" transform="translate(-206.384 -318.75)" fill="#3d8d89"/>
          <path id="Path_112763" data-name="Path 112763" d="M179.445,403.643a.772.772,0,0,0-.938-.56c-.578.146-1.178.287-1.782.419a.772.772,0,1,0,.331,1.509c.619-.136,1.234-.281,1.828-.43a.772.772,0,0,0,.56-.938" transform="translate(-148.91 -340.791)" fill="#3d8d89"/>
          <path id="Path_112764" data-name="Path 112764" d="M144.049,410.969a.772.772,0,0,0-.888-.636c-.594.1-1.2.192-1.815.279a.773.773,0,1,0,.218,1.53c.622-.089,1.245-.184,1.85-.284a.772.772,0,0,0,.636-.888" transform="translate(-118.948 -346.932)" fill="#3d8d89"/>
          <path id="Path_112765" data-name="Path 112765" d="M197.661,221.355a.773.773,0,0,0,.33,1.042,16,16,0,0,0,1.78.79.772.772,0,1,0,.539-1.448,14.41,14.41,0,0,1-1.607-.713.773.773,0,0,0-1.041.33" transform="translate(-167.051 -186.806)" fill="#3d8d89"/>
          <path id="Path_112766" data-name="Path 112766" d="M305.415,334.114a.772.772,0,0,0-1.131-1.052c-.407.437-.834.872-1.27,1.291a.772.772,0,0,0,1.071,1.113c.456-.439.9-.894,1.33-1.352" transform="translate(-256.002 -281.399)" fill="#3d8d89"/>
          <path id="Path_112767" data-name="Path 112767" d="M159.354,130.982a12.111,12.111,0,0,0-.686,1.856.773.773,0,1,0,1.489.414,10.574,10.574,0,0,1,.6-1.618.772.772,0,1,0-1.4-.651" transform="translate(-134.132 -110.368)" fill="#3d8d89"/>
          <path id="Path_112768" data-name="Path 112768" d="M469.113,151.108a.772.772,0,0,0,1.045.32c.538-.286,1.09-.584,1.641-.885a.773.773,0,0,0-.742-1.355c-.544.3-1.09.592-1.623.875a.773.773,0,0,0-.32,1.045" transform="translate(-396.564 -126.06)" fill="#3d8d89"/>
          <path id="Path_112769" data-name="Path 112769" d="M242.025,86.456a15.215,15.215,0,0,1,1.759.113.772.772,0,0,0,.189-1.533,16.761,16.761,0,0,0-1.939-.125.772.772,0,1,0-.009,1.545" transform="translate(-203.985 -71.793)" fill="#3d8d89"/>
          <path id="Path_112770" data-name="Path 112770" d="M276.778,357.232c-.473.369-.964.731-1.46,1.078a.773.773,0,0,0,.887,1.265c.516-.362,1.028-.74,1.522-1.125a.772.772,0,0,0-.949-1.219" transform="translate(-232.506 -301.905)" fill="#3d8d89"/>
          <path id="Path_112771" data-name="Path 112771" d="M232.683,231.4a.772.772,0,0,0-.183,1.534c.625.074,1.271.12,1.922.136h.019a.772.772,0,0,0,.018-1.545c-.6-.014-1.2-.057-1.775-.125" transform="translate(-196.006 -195.649)" fill="#3d8d89"/>
          <path id="Path_112772" data-name="Path 112772" d="M206.776,89.691a.769.769,0,0,0,.275-.051,13.565,13.565,0,0,1,1.675-.515.772.772,0,0,0-.359-1.5,15.081,15.081,0,0,0-1.866.575.773.773,0,0,0,.275,1.494" transform="translate(-174.178 -74.067)" fill="#3d8d89"/>
          <path id="Path_112773" data-name="Path 112773" d="M176.951,105.491a.77.77,0,0,0,.563-.244,10.454,10.454,0,0,1,.987-.923q.145-.119.294-.233a.772.772,0,0,0-.939-1.227q-.169.13-.335.265a11.98,11.98,0,0,0-1.134,1.061.772.772,0,0,0,.563,1.3" transform="translate(-148.961 -86.839)" fill="#3d8d89"/>
          <path id="Path_112774" data-name="Path 112774" d="M563.137,92.043c-.494.35-1,.7-1.512,1.056a.772.772,0,1,0,.876,1.272c.514-.354,1.028-.713,1.528-1.067a.772.772,0,1,0-.892-1.261" transform="translate(-474.577 -77.704)" fill="#3d8d89"/>
          <path id="Path_112775" data-name="Path 112775" d="M170.007,199.653a12.527,12.527,0,0,0,1.337,1.452.772.772,0,1,0,1.052-1.131,11,11,0,0,1-1.172-1.273.772.772,0,1,0-1.217.951" transform="translate(-143.604 -167.753)" fill="#3d8d89"/>
          <path id="Path_112776" data-name="Path 112776" d="M0,391.555a37.321,37.321,0,0,1,10.385,6.186l-1.909-5.807a.768.768,0,0,0,.013-.129.756.756,0,0,0-.011-.113l2.255-5.7A37.352,37.352,0,0,1,0,391.555" transform="translate(0 -326.36)" fill="#3d8d89"/>
        </g>
      </g>
    </g>
  </g>
</svg>
