<svg xmlns="http://www.w3.org/2000/svg" width="188.962" height="96.756" viewBox="0 0 188.962 96.756">
  <g id="Group_143310" data-name="Group 143310" transform="translate(-1019.783 -2739.797)">
    <g id="Group_143307" data-name="Group 143307" transform="matrix(-0.978, 0.208, -0.208, -0.978, 1202.421, 2810.419)">
      <g id="Group_143309" data-name="Group 143309" transform="translate(0 0)">
        <path id="Path_112834" data-name="Path 112834" d="M.6,2.768A6.815,6.815,0,0,0,.074,1.137.8.8,0,1,1,1.528.465a8.414,8.414,0,0,1,.65,2.016A.8.8,0,0,1,.6,2.768" transform="translate(78.183 37.069)"/>
        <path id="Path_112835" data-name="Path 112835" d="M.188.285a.8.8,0,0,1,1.128-.1A18.283,18.283,0,0,1,2.783,1.563a.8.8,0,1,1-1.16,1.1A16.672,16.672,0,0,0,.285,1.413.8.8,0,0,1,.188.285" transform="translate(74.58 32.625)"/>
        <path id="Path_112836" data-name="Path 112836" d="M1.144.465A.8.8,0,1,1,2.6,1.137a6.714,6.714,0,0,1-1.214,1.8.8.8,0,1,1-1.164-1.1A5.127,5.127,0,0,0,1.144.465" transform="translate(77.224 42.642)"/>
        <path id="Path_112837" data-name="Path 112837" d="M0,.793A.8.8,0,0,1,.8,0H.809c.643.006,1.3.029,1.959.067a.8.8,0,0,1-.093,1.6C2.043,1.629,1.41,1.607.793,1.6A.8.8,0,0,1,0,.793" transform="translate(78.798 0)"/>
        <path id="Path_112838" data-name="Path 112838" d="M.8,0A.819.819,0,0,1,.9.007c.63.082,1.268.16,1.9.233A.8.8,0,0,1,2.617,1.83C1.981,1.757,1.336,1.678.7,1.595A.8.8,0,0,1,.8,0" transform="translate(134.54 13.909)"/>
        <path id="Path_112839" data-name="Path 112839" d="M.8,0C.823,0,.846,0,.869,0c.631.054,1.272.1,1.9.149a.8.8,0,1,1-.114,1.6C2.02,1.7,1.371,1.653.732,1.6A.8.8,0,0,1,.8,0" transform="translate(140.271 14.527)"/>
        <path id="Path_112840" data-name="Path 112840" d="M.769.09C1.4.065,2.044.035,2.678,0h.043a.8.8,0,0,1,.042,1.6c-.641.034-1.29.064-1.93.09A.8.8,0,0,1,.769.09" transform="translate(157.549 14.813)"/>
        <path id="Path_112841" data-name="Path 112841" d="M.741.318A9.436,9.436,0,0,0,2.485.028.8.8,0,1,1,2.9,1.574a11.042,11.042,0,0,1-2.041.341.8.8,0,0,1-.12-1.6" transform="translate(72.036 46.107)"/>
        <path id="Path_112842" data-name="Path 112842" d="M.08.452A.8.8,0,0,1,1.15.08q.3.146.6.294c.386.192.774.4,1.154.617a.8.8,0,0,1-.8,1.39c-.354-.2-.715-.4-1.073-.574Q.745,1.663.452,1.522A.8.8,0,0,1,.08.452" transform="translate(69.721 29.547)"/>
        <path id="Path_112843" data-name="Path 112843" d="M.8,0H.834C1.465.027,2.107.05,2.743.068a.8.8,0,0,1-.045,1.6C2.055,1.65,1.405,1.628.767,1.6A.8.8,0,0,1,.8,0" transform="translate(146.023 14.894)"/>
        <path id="Path_112844" data-name="Path 112844" d="M.8,0A.809.809,0,0,1,.939.012C1.564.122,2.2.228,2.823.329A.8.8,0,0,1,2.57,1.91c-.633-.1-1.275-.209-1.907-.32A.8.8,0,0,1,.8,0" transform="translate(128.841 13.038)"/>
        <path id="Path_112845" data-name="Path 112845" d="M.738.165c.629-.049,1.27-.1,1.9-.162.025,0,.049,0,.074,0a.8.8,0,0,1,.072,1.6c-.641.058-1.289.113-1.924.163A.8.8,0,1,1,.738.165" transform="translate(163.303 14.397)"/>
        <path id="Path_112846" data-name="Path 112846" d="M.8.012H.855c.615,0,1.24,0,1.857-.012h.011a.8.8,0,0,1,.01,1.6c-.624.008-1.255.012-1.881.012H.8a.8.8,0,0,1,0-1.6" transform="translate(151.785 15.004)"/>
        <path id="Path_112847" data-name="Path 112847" d="M.8,0a.8.8,0,0,1,.25.04c.589.193,1.188.395,1.832.616a.8.8,0,0,1-.52,1.515c-.636-.219-1.229-.418-1.811-.608A.8.8,0,0,1,.8,0" transform="translate(95.713 3.245)"/>
        <path id="Path_112848" data-name="Path 112848" d="M1.579,2.837A.8.8,0,0,1,.023,2.458C.178,1.82.362,1.178.57.549a.8.8,0,0,1,1.52.5C1.9,1.64,1.724,2.24,1.579,2.837" transform="translate(52.962 16.823)"/>
        <path id="Path_112849" data-name="Path 112849" d="M.8,0A.8.8,0,0,1,.917.008C1.552.1,2.2.21,2.844.33A.8.8,0,0,1,2.549,1.9C1.926,1.788,1.3,1.683.685,1.593A.8.8,0,0,1,.8,0" transform="translate(84.54 0.461)"/>
        <path id="Path_112850" data-name="Path 112850" d="M1.067.379a.8.8,0,0,1,1.362.843C2.1,1.747,1.8,2.291,1.512,2.84A.8.8,0,1,1,.09,2.1C.392,1.52.721.939,1.067.379" transform="translate(54.982 11.613)"/>
        <path id="Path_112851" data-name="Path 112851" d="M.8,0A.81.81,0,0,1,.974.019c.617.137,1.246.271,1.869.4A.8.8,0,1,1,2.52,1.987c-.63-.13-1.267-.266-1.892-.4A.8.8,0,0,1,.8,0" transform="translate(123.185 11.916)"/>
        <path id="Path_112852" data-name="Path 112852" d="M2.627,0a.785.785,0,0,1,.08,0,.8.8,0,0,1,.078,1.6c-.626.062-1.25.143-1.856.241A.8.8,0,1,1,.673.258C1.311.155,1.969.069,2.627,0" transform="translate(73.055 0.166)"/>
        <path id="Path_112853" data-name="Path 112853" d="M2.382.035A.8.8,0,1,1,2.85,1.567c-.6.182-1.188.387-1.759.609A.8.8,0,0,1,.51.684C1.118.447,1.747.229,2.382.035" transform="translate(67.498 1.276)"/>
        <path id="Path_112854" data-name="Path 112854" d="M1.408,2.73A.8.8,0,1,1,.193,1.687c.43-.5.885-.991,1.35-1.454A.8.8,0,1,1,2.673,1.368c-.436.434-.861.892-1.265,1.361" transform="translate(58.196 7.106)"/>
        <path id="Path_112855" data-name="Path 112855" d="M2.409,0a.8.8,0,0,1,.409,1.49C2.291,1.8,1.769,2.142,1.266,2.5a.8.8,0,1,1-.93-1.3C.875.813,1.436.447,2,.112A.8.8,0,0,1,2.409,0" transform="translate(62.435 3.579)"/>
        <path id="Path_112856" data-name="Path 112856" d="M.8,0a.8.8,0,0,1,.24.037c.605.19,1.221.378,1.829.56a.8.8,0,0,1-.458,1.534C1.8,1.948,1.174,1.757.561,1.565A.8.8,0,0,1,.8,0" transform="translate(112.044 8.936)"/>
        <path id="Path_112857" data-name="Path 112857" d="M.8,0a.8.8,0,0,1,.208.027c.612.164,1.235.326,1.85.481a.8.8,0,1,1-.392,1.553C1.844,1.9,1.214,1.74.594,1.574A.8.8,0,0,1,.8,0" transform="translate(117.583 10.546)"/>
        <path id="Path_112858" data-name="Path 112858" d="M.8,0a.8.8,0,0,1,.268.046q.9.32,1.806.632a.8.8,0,1,1-.521,1.514Q1.442,1.879.533,1.555A.8.8,0,0,1,.8,0" transform="translate(106.579 7.099)"/>
        <path id="Path_112859" data-name="Path 112859" d="M.8,0A.806.806,0,0,1,1,.025c.608.156,1.239.326,1.875.507a.8.8,0,0,1-.437,1.54C1.814,1.9,1.2,1.729.6,1.576A.8.8,0,0,1,.8,0" transform="translate(90.185 1.615)"/>
        <path id="Path_112860" data-name="Path 112860" d="M.8,0a.8.8,0,0,1,.267.046A14.211,14.211,0,0,0,2.817.54a.8.8,0,1,1-.336,1.566A15.8,15.8,0,0,1,.534,1.556.8.8,0,0,1,.8,0" transform="translate(66.368 45.614)"/>
        <path id="Path_112861" data-name="Path 112861" d="M.8,0a.8.8,0,0,1,.272.048L2.881.7a.8.8,0,0,1-.547,1.5l-1.8-.655A.8.8,0,0,1,.8,0" transform="translate(101.158 5.139)"/>
        <path id="Path_112862" data-name="Path 112862" d="M.048.527A.8.8,0,0,1,1.075.048C1.684.27,2.3.5,2.894.745A.8.8,0,0,1,2.3,2.23C1.715,2,1.119,1.769.527,1.553A.8.8,0,0,1,.048.527" transform="translate(64.413 27.307)"/>
        <path id="Path_112863" data-name="Path 112863" d="M1.671.206A.8.8,0,0,1,2.742,1.4c-.469.422-.935.857-1.386,1.292A.8.8,0,1,1,.245,1.535C.709,1.087,1.189.64,1.671.206" transform="translate(0 39.344)"/>
        <path id="Path_112864" data-name="Path 112864" d="M.371,1.132C.914.786,1.472.443,2.029.112a.8.8,0,1,1,.817,1.377c-.543.322-1.086.656-1.615.993a.8.8,0,1,1-.86-1.351" transform="translate(9.05 32.535)"/>
        <path id="Path_112865" data-name="Path 112865" d="M.71.2C1.351.122,2,.057,2.646,0l.068,0A.8.8,0,0,1,2.78,1.6c-.628.053-1.263.116-1.889.188A.8.8,0,0,1,.71.2" transform="translate(36.024 23.91)"/>
        <path id="Path_112866" data-name="Path 112866" d="M.437.935C1.011.642,1.6.353,2.184.077a.8.8,0,0,1,.684,1.448c-.57.269-1.143.551-1.7.836A.8.8,0,1,1,.437.935" transform="translate(14.053 29.835)"/>
        <path id="Path_112867" data-name="Path 112867" d="M.78.021C1.332.007,1.891,0,2.441,0h.285a.8.8,0,0,1,0,1.6H2.441c-.536,0-1.081.007-1.62.02A.8.8,0,0,1,.78.021" transform="translate(41.773 23.679)"/>
        <path id="Path_112868" data-name="Path 112868" d="M.64.374C1.273.244,1.916.123,2.552.012A.8.8,0,0,1,2.826,1.59c-.62.108-1.248.227-1.865.353A.8.8,0,1,1,.64.374" transform="translate(30.332 24.648)"/>
        <path id="Path_112869" data-name="Path 112869" d="M.306,1.332C.815.933,1.337.537,1.859.155A.8.8,0,0,1,2.8,1.447C2.3,1.818,1.79,2.2,1.3,2.592a.8.8,0,1,1-.989-1.26" transform="translate(4.347 35.71)"/>
        <path id="Path_112870" data-name="Path 112870" d="M.572.556C1.19.371,1.82.193,2.444.027a.8.8,0,0,1,.413,1.547c-.609.162-1.223.336-1.826.516A.8.8,0,0,1,.572.556" transform="translate(24.743 25.885)"/>
        <path id="Path_112871" data-name="Path 112871" d="M.5.743C1.1.5,1.715.27,2.321.049a.8.8,0,1,1,.549,1.5C2.279,1.769,1.683,2,1.1,2.23A.8.8,0,0,1,.5.743" transform="translate(19.3 27.616)"/>
        <path id="Path_112872" data-name="Path 112872" d="M.025.6A.8.8,0,0,1,1,.025c.626.16,1.258.333,1.878.514a.8.8,0,0,1-.447,1.538c-.6-.176-1.219-.344-1.828-.5A.8.8,0,0,1,.025.6" transform="translate(58.907 25.607)"/>
        <path id="Path_112873" data-name="Path 112873" d="M.8,0a.8.8,0,0,1,.5.175c.484.386.987.754,1.5,1.094A.8.8,0,1,1,1.907,2.6C1.361,2.235.82,1.841.3,1.427A.8.8,0,0,1,.8,0" transform="translate(61.406 42.734)"/>
        <path id="Path_112874" data-name="Path 112874" d="M.8,0,.852,0C1.5.043,2.151.1,2.792.156A.8.8,0,0,1,2.641,1.75C2.015,1.691,1.379,1.64.749,1.6A.8.8,0,0,1,.8,0" transform="translate(47.535 23.811)"/>
        <path id="Path_112875" data-name="Path 112875" d="M.313.166A.8.8,0,0,1,1.436.313c.377.491.777.972,1.189,1.428A.8.8,0,0,1,1.436,2.813C1,2.326.569,1.813.166,1.288A.8.8,0,0,1,.313.166" transform="translate(57.383 38.625)"/>
        <path id="Path_112876" data-name="Path 112876" d="M.472.071a.8.8,0,0,1,1.059.4c.253.563.532,1.123.827,1.665A.8.8,0,1,1,.953,2.9C.638,2.327.341,1.73.071,1.129A.8.8,0,0,1,.472.071" transform="translate(54.433 33.687)"/>
        <path id="Path_112877" data-name="Path 112877" d="M.056.745A.8.8,0,0,1,.854,0L.911,0a.8.8,0,0,1,.743.855c-.019.271-.033.543-.041.809,0,.11-.006.22-.008.33a.811.811,0,0,1,.269,0c.639.1,1.284.212,1.918.333a.8.8,0,0,1-.3,1.573c-.618-.117-1.246-.226-1.868-.324a.8.8,0,0,1-.39-.177.8.8,0,0,1-.416.125H.8A.8.8,0,0,1,0,2.735c0-.13,0-.261,0-.39,0-.243,0-.489.012-.731.009-.286.024-.579.044-.869" transform="translate(52.315 22.461)"/>
        <path id="Path_112878" data-name="Path 112878" d="M.654.014a.8.8,0,0,1,.934.64c.113.6.252,1.212.415,1.809a.8.8,0,0,1-1.545.42C.283,2.244.134,1.593.014.948A.8.8,0,0,1,.654.014" transform="translate(52.708 28.2)"/>
      </g>
    </g>
    <g id="box" transform="translate(1184.459 2740.297)">
      <g id="vuesax_twotone_box" data-name="vuesax/twotone/box">
        <g id="box-2" data-name="box">
          <g id="Group_642" data-name="Group 642" transform="translate(3.142 7.374)" opacity="0.4">
            <path id="Vector" d="M0,0,8.751,5.064,17.443.03" fill="none" stroke="#3d8d89" stroke-linecap="round" stroke-linejoin="round" stroke-width="1.5" stroke-dasharray="0 0"/>
            <path id="Vector-2" data-name="Vector" d="M0,8.989V0" transform="translate(8.751 5.054)" fill="none" stroke="#3d8d89" stroke-linecap="round" stroke-linejoin="round" stroke-width="1.5" stroke-dasharray="0 0"/>
          </g>
          <path id="Vector-3" data-name="Vector" d="M2.18,3.411A4.677,4.677,0,0,0,0,7.107v5.6a4.677,4.677,0,0,0,2.18,3.7l5.292,2.944a4.75,4.75,0,0,0,4.113,0L16.878,16.4a4.677,4.677,0,0,0,2.18-3.7v-5.6a4.677,4.677,0,0,0-2.18-3.7L11.586.467a4.716,4.716,0,0,0-4.113.01Z" transform="translate(2.369 1.981)" fill="none" stroke="#3d8d89" stroke-linecap="round" stroke-linejoin="round" stroke-width="1.5" stroke-dasharray="0 0"/>
          <path id="Vector-4" data-name="Vector" d="M23.786,0V23.786H0V0Z" transform="translate(23.786 23.786) rotate(180)" fill="none" stroke="#3d8d89" stroke-width="1" opacity="0"/>
        </g>
      </g>
    </g>
    <path id="Path_112879" data-name="Path 112879" d="M20.139,3.246A3.842,3.842,0,0,1,19,5.593l4.088,2.585c.258.112.252.269.1.455l-.866.739a.619.619,0,0,1-.5.089l-5.046-.853-4.2,4.553,9.814,6.64c.248.146.269.311.013.5l-1.416,1.13-12.794-3.6L4.405,21.878c-1.268,1.1-2.5,1.588-3.446,1.355a.979.979,0,0,1-.866-.773c-.313-.959.172-2.248,1.319-3.575l4.041-3.779L1.858,2.312,2.987.9c.191-.254.356-.233.5.013l6.642,9.813,4.553-4.2-.853-5.046a.615.615,0,0,1,.089-.5L14.659.1c.184-.15.343-.155.455.1L17.7,4.295a3.838,3.838,0,0,1,2.354-1.143c.07,0,.085.027.085.095Z" transform="matrix(0.017, 1, -1, 0.017, 1134.435, 2751.598)" fill="#3d8d89" fill-rule="evenodd"/>
    <g id="truck-tick" transform="matrix(0.883, -0.469, 0.469, 0.883, 1019.783, 2806.085)">
      <g id="vuesax_twotone_truck-tick" data-name="vuesax/twotone/truck-tick" transform="translate(8.838) rotate(19)">
        <g id="truck-tick-2" data-name="truck-tick">
          <path id="Vector-5" data-name="Vector" d="M0,11.311a2.269,2.269,0,0,0,2.262,2.262H14.7V6.357a4.41,4.41,0,0,1-3.5,1.561,4.347,4.347,0,0,1-2.941-1.2A3.83,3.83,0,0,1,7.4,5.644a4.405,4.405,0,0,1-.611-2.353A4.505,4.505,0,0,1,8.325,0H0Z" transform="translate(10.18 2.262)" fill="none" stroke="#3d8d89" stroke-linecap="round" stroke-linejoin="round" stroke-width="1.5" stroke-dasharray="0 0" opacity="0.4"/>
          <path id="Vector-6" data-name="Vector" d="M0,13.573a3.389,3.389,0,0,0,3.393,3.393H4.524a2.262,2.262,0,1,1,4.524,0h4.524a2.262,2.262,0,1,1,4.524,0h1.131a3.389,3.389,0,0,0,3.393-3.393V10.18H10.18A2.269,2.269,0,0,1,7.918,7.918V0H5.837A2.281,2.281,0,0,0,3.868,1.142L1.934,4.524H3.393A1.134,1.134,0,0,1,4.524,5.656V9.049A1.134,1.134,0,0,1,3.393,10.18H0Z" transform="translate(2.262 5.656)" fill="none" stroke="#3d8d89" stroke-linecap="round" stroke-linejoin="round" stroke-width="1.5" stroke-dasharray="0 0"/>
          <path id="Vector-7" data-name="Vector" d="M2.262,4.524A2.262,2.262,0,1,0,0,2.262,2.262,2.262,0,0,0,2.262,4.524Z" transform="translate(15.836 20.36)" fill="none" stroke="#3d8d89" stroke-linecap="round" stroke-linejoin="round" stroke-width="1.5" stroke-dasharray="0 0"/>
          <path id="Vector-8" data-name="Vector" d="M2.262,4.524A2.262,2.262,0,1,0,0,2.262,2.262,2.262,0,0,0,2.262,4.524Z" transform="translate(6.787 20.36)" fill="none" stroke="#3d8d89" stroke-linecap="round" stroke-linejoin="round" stroke-width="1.5" stroke-dasharray="0 0"/>
          <path id="Vector-9" data-name="Vector" d="M0,5.656H3.393A1.134,1.134,0,0,0,4.524,4.524V1.131A1.134,1.134,0,0,0,3.393,0H1.934L0,3.393Z" transform="translate(2.262 10.18)" fill="none" stroke="#3d8d89" stroke-linecap="round" stroke-linejoin="round" stroke-width="1.5" stroke-dasharray="0 0"/>
          <g id="Group" transform="translate(16.966 1.13)">
            <path id="Vector-10" data-name="Vector" d="M.612,6.776a3.83,3.83,0,0,0,.871,1.075,4.347,4.347,0,0,0,2.941,1.2,4.41,4.41,0,0,0,3.5-1.561,3.957,3.957,0,0,0,.419-.554,4.373,4.373,0,0,0,.713-2.307A4.526,4.526,0,0,0,0,4.424,4.405,4.405,0,0,0,.612,6.776Z" transform="translate(0 0)" fill="none" stroke="#3d8d89" stroke-linecap="round" stroke-linejoin="round" stroke-miterlimit="10" stroke-width="1.5" stroke-dasharray="0 0"/>
            <path id="Vector-11" data-name="Vector" d="M3.506,1.2,2.364,2.285,0,0" transform="translate(2.784 3.36)" fill="none" stroke="#3d8d89" stroke-linecap="round" stroke-linejoin="round" stroke-width="1.5" stroke-dasharray="0 0" opacity="0.4"/>
          </g>
          <path id="Vector-12" data-name="Vector" d="M0,0V27.147H27.147V0Z" fill="none" stroke="#3d8d89" stroke-width="1" opacity="0"/>
        </g>
      </g>
    </g>
  </g>
</svg>
